<?xml version="1.0" standalone="no"?><!DOCTYPE svg PUBLIC "-//W3C//DTD SVG 1.1//EN" "http://www.w3.org/Graphics/SVG/1.1/DTD/svg11.dtd"><svg t="1740248029589" class="icon" viewBox="0 0 1024 1024" version="1.1" xmlns="http://www.w3.org/2000/svg" p-id="16390" xmlns:xlink="http://www.w3.org/1999/xlink" width="200" height="200"><path d="M512 121.915c215.099 0 390.085 174.986 390.085 390.085S727.1 902.085 512 902.085 121.915 727.1 121.915 512 296.9 121.915 512 121.915m0-48.772C269.634 73.143 73.143 269.633 73.143 512S269.633 950.857 512 950.857 950.857 754.367 950.857 512 754.367 73.143 512 73.143z" fill="#5373EA" p-id="16391"></path><path d="M487.6 77.18h48.771v122.354H487.6z m0 747.286h48.771V946.82H487.6zM824.466 487.63H946.82V536.4H824.466z m-747.286 0h122.354V536.4H77.18z m144.59-300.354l86.542 86.513-34.494 34.495-86.514-86.514z m528.412 528.442l86.514 86.514-34.465 34.465-86.514-86.514zM802.23 187.246l34.495 34.523-86.543 86.514-34.465-34.524zM273.789 715.717l34.495 34.436-86.485 86.543-34.494-34.436zM466.973 704.044l144.12-166.883-198.187-50.322 144.12-166.883z" fill="#5373EA" p-id="16392"></path></svg>