<?xml version="1.0" standalone="no"?><!DOCTYPE svg PUBLIC "-//W3C//DTD SVG 1.1//EN" "http://www.w3.org/Graphics/SVG/1.1/DTD/svg11.dtd"><svg t="1740247974001" class="icon" viewBox="0 0 1024 1024" version="1.1" xmlns="http://www.w3.org/2000/svg" p-id="12394" xmlns:xlink="http://www.w3.org/1999/xlink" width="200" height="200"><path d="M542.08 0c259.008 12.096 463.808 222.848 481.92 481.92v60.16c-12.096 259.008-222.848 463.808-481.92 481.92h-60.16C222.848 1011.904 18.048 801.152 0 542.08v-60.16C12.096 222.848 222.848 18.048 481.92 0h60.16z m-0.832 73.152h-58.496c-216.512 11.712-392.064 187.264-409.6 409.6v58.496c11.712 216.512 187.264 392.064 409.6 409.6h58.496c216.512-17.536 392.064-193.088 409.6-409.6v-58.496c-11.712-216.512-187.264-392.064-409.6-409.6z m7.296 784.832v73.152H475.52v-73.152H548.48z m233.92-127.232l51.712 51.712-51.712 51.712-51.712-51.712 51.712-51.712z m-540.928 0l51.712 51.712-51.712 51.712-51.712-51.712 51.712-51.712z m421.12-68.16v120.448H602.24v-60.224h-60.16v60.224h-60.288v-60.224h-60.16v60.224h-60.352v-120.448h301.312z m268.48-187.136V548.48h-73.152V475.52h73.152z m-765.12 0V548.48H92.864V475.52h73.152zM512 241.088L572.288 512H451.712L512 241.088h-0.064z m270.592-51.264l51.648 51.712-51.712 51.712-51.712-51.712 51.712-51.712h0.064z m-540.992 0l51.712 51.712-51.712 51.712-51.712-51.712 51.712-51.712zM548.48 92.8v73.152H475.52V92.864H548.48z" fill="#457EFF" p-id="12395"></path></svg>