<?xml version="1.0" standalone="no"?><!DOCTYPE svg PUBLIC "-//W3C//DTD SVG 1.1//EN" "http://www.w3.org/Graphics/SVG/1.1/DTD/svg11.dtd"><svg t="1740369919729" class="icon" viewBox="0 0 1024 1024" version="1.1" xmlns="http://www.w3.org/2000/svg" p-id="2879" xmlns:xlink="http://www.w3.org/1999/xlink" width="200" height="200"><path d="M512 0C229.286957 0 0 229.286957 0 512s229.286957 512 512 512 512-229.286957 512-512S794.713043 0 512 0z m0 934.956522C278.26087 934.956522 89.043478 745.73913 89.043478 512S278.26087 89.043478 512 89.043478s422.956522 189.217391 422.956522 422.956522-189.217391 422.956522-422.956522 422.956522z m170.295652-316.104348c17.808696 17.808696 17.808696 45.634783 0 63.443478-8.904348 8.904348-20.034783 13.356522-31.165217 13.356522s-22.26087-4.452174-31.165218-13.356522L480.834783 543.165217c-8.904348-7.791304-13.356522-18.921739-13.356522-31.165217V247.095652c0-24.486957 20.034783-44.521739 44.521739-44.521739s44.521739 20.034783 44.521739 44.521739v247.095652l125.773913 124.66087z" p-id="2880" fill="#6b7280"></path></svg>