<?xml version="1.0" standalone="no"?><!DOCTYPE svg PUBLIC "-//W3C//DTD SVG 1.1//EN" "http://www.w3.org/Graphics/SVG/1.1/DTD/svg11.dtd"><svg t="1740369974353" class="icon" viewBox="0 0 1024 1024" version="1.1" xmlns="http://www.w3.org/2000/svg" p-id="3141" xmlns:xlink="http://www.w3.org/1999/xlink" width="200" height="200"><path d="M481.947826 821.426087c-8.904348 0-17.808696-3.33913-24.486956-8.904348-11.130435-8.904348-16.695652-23.373913-13.356522-37.843478l54.53913-278.26087-30.052174 16.695652c-18.921739 10.017391-42.295652 4.452174-53.426087-14.469565-10.017391-18.921739-4.452174-42.295652 14.469566-53.426087l103.513043-58.991304c13.356522-7.791304 30.052174-6.678261 42.295652 2.226087 12.243478 8.904348 17.808696 24.486957 15.582609 38.956522l-56.765217 289.391304 46.747826-20.034783c20.034783-8.904348 42.295652 0 51.2 20.034783 8.904348 20.034783 0 42.295652-20.034783 51.2l-114.643478 50.086957c-4.452174 2.226087-10.017391 3.33913-15.582609 3.33913zM592.13913 289.391304c10.017391-10.017391 16.695652-24.486957 16.695653-38.956521 0-14.469565-5.565217-28.93913-16.695653-38.956522-10.017391-10.017391-24.486957-16.695652-38.956521-16.695652-14.469565 0-28.93913 5.565217-38.956522 16.695652-10.017391 10.017391-16.695652 24.486957-16.695652 38.956522 0 14.469565 5.565217 28.93913 16.695652 38.956521 10.017391 10.017391 24.486957 16.695652 38.956522 16.695653 14.469565 0 28.93913-5.565217 38.956521-16.695653zM1024 512C1024 229.286957 794.713043 0 512 0S0 229.286957 0 512s229.286957 512 512 512 512-229.286957 512-512z m-89.043478 0c0 233.73913-189.217391 422.956522-422.956522 422.956522S89.043478 745.73913 89.043478 512 278.26087 89.043478 512 89.043478s422.956522 189.217391 422.956522 422.956522z" p-id="3142" fill="#6b7280"></path></svg>